<?xml version="1.0" encoding="UTF-8" standalone="no"?>
<svg
   xmlns:dc="http://purl.org/dc/elements/1.1/"
   xmlns:cc="http://creativecommons.org/ns#"
   xmlns:rdf="http://www.w3.org/1999/02/22-rdf-syntax-ns#"
   xmlns:svg="http://www.w3.org/2000/svg"
   xmlns="http://www.w3.org/2000/svg"
   viewBox="0 0 83.125 57.813751"
   height="57.813751"
   width="83.125"
   xml:space="preserve"
   version="1.1"
   id="svg2"><metadata
     id="metadata8"><rdf:RDF><cc:Work
         rdf:about=""><dc:format>image/svg+xml</dc:format><dc:type
           rdf:resource="http://purl.org/dc/dcmitype/StillImage" /></cc:Work></rdf:RDF></metadata><defs
     id="defs6"><clipPath
       id="clipPath16"
       clipPathUnits="userSpaceOnUse"><path
         id="path18"
         d="m 0,46.251 66.5,0 L 66.5,0 0,0 0,46.251 Z" /></clipPath></defs><g
     transform="matrix(1.25,0,0,-1.25,0,57.81375)"
     id="g10"><g
       id="g12"><g
         clip-path="url(#clipPath16)"
         id="g14"><g
           transform="translate(33.25,5.833)"
           id="g20"><path
             id="path22"
             style="fill:#4c4c4e;fill-opacity:1;fill-rule:nonzero;stroke:none"
             d="m 0,0 c -3.958,0 -7.168,3.209 -7.168,7.168 0,3.958 3.21,7.168 7.168,7.168 3.958,0 7.168,-3.21 7.168,-7.168 C 7.168,3.209 3.958,0 0,0 m 27.687,34.188 c -0.764,0.764 -1.767,1.147 -2.77,1.147 -1.002,0 -2.005,-0.383 -2.77,-1.147 L 6.423,18.462 C 4.527,19.543 2.338,20.169 0,20.169 c -7.18,0 -13.001,-5.821 -13.001,-13.001 0,-7.181 5.821,-13.001 13.001,-13.001 7.18,0 13.001,5.82 13.001,13.001 0,1.984 -0.458,3.857 -1.253,5.54 l 15.939,15.939 c 1.53,1.53 1.53,4.011 0,5.541" /></g><g
           transform="translate(33.6001,11.4595)"
           id="g24"><path
             id="path26"
             style="fill:#4c4c4e;fill-opacity:1;fill-rule:nonzero;stroke:none"
             d="m 0,0 c -1.791,0.43 -1.856,2.149 -1.851,2.496 0.025,0.823 -0.618,1.513 -1.441,1.545 -0.811,0.018 -1.525,-0.614 -1.557,-1.442 -0.06,-1.549 0.731,-4.696 4.149,-5.516 0.117,-0.028 0.235,-0.042 0.351,-0.042 0.678,0 1.292,0.462 1.457,1.15 C 1.302,-1.003 0.806,-0.193 0,0" /></g><g
           transform="translate(51.7593,40.6245)"
           id="g28"><path
             id="path30"
             style="fill:#4c4c4e;fill-opacity:1;fill-rule:nonzero;stroke:none"
             d="m 0,0 c -5.291,3.552 -11.658,5.626 -18.509,5.626 -18.364,0 -33.25,-14.886 -33.25,-33.25 l 10.184,0 c 0,12.739 10.327,23.066 23.066,23.066 4.026,0 7.81,-1.034 11.104,-2.847 L 0,0 Z" /></g><g
           transform="translate(61.3955,30.6958)"
           id="g32"><path
             id="path34"
             style="fill:#4c4c4e;fill-opacity:1;fill-rule:nonzero;stroke:none"
             d="m 0,0 -7.47,-7.47 c 1.527,-3.082 2.39,-6.552 2.39,-10.225 l 10.184,0 C 5.104,-11.189 3.229,-5.125 0,0" /></g></g></g></g></svg>